<svg width="1024" height="1024" viewBox="0 0 1024 1024" fill="none" xmlns="http://www.w3.org/2000/svg">
<rect width="1024" height="1024" fill="white"/>
<path d="M830.437 465.937H784.875C784.807 405.539 760.783 347.633 718.075 304.925C675.367 262.217 617.461 238.193 557.062 238.125V192.562C629.541 192.645 699.027 221.474 750.277 272.723C801.526 323.973 830.355 393.459 830.437 465.937Z" fill="black"/>
<path d="M739.312 465.938H693.75C693.71 429.698 679.296 394.955 653.671 369.329C628.045 343.704 593.302 329.29 557.062 329.25V283.688C605.381 283.743 651.705 302.962 685.871 337.129C720.038 371.295 739.257 417.619 739.312 465.938Z" fill="black"/>
<path d="M511.5 784.875V715.62C541.234 718.687 571.281 715.82 599.899 707.185C628.517 698.551 655.135 684.32 678.211 665.319C682.762 661.609 686.486 656.987 689.145 651.752C691.804 646.517 693.338 640.783 693.65 634.92C693.93 629.209 693.014 623.502 690.958 618.167C688.903 612.831 685.754 607.984 681.715 603.937L566.496 488.719L625.406 429.809L593.191 397.594L534.281 456.504L419.051 341.263C414.991 337.244 410.141 334.11 404.808 332.06C399.476 330.01 393.776 329.087 388.069 329.35C382.206 329.66 376.472 331.195 371.238 333.856C366.004 336.517 361.386 340.246 357.681 344.801C326.507 382.788 308.513 429.873 306.406 478.969C304.3 528.066 318.195 576.518 346.001 617.036L290.05 784.875H192.562V830.438H830.437V784.875H511.5ZM390.304 376.949L646.041 632.696C610.969 659.899 567.177 673.369 522.879 670.581C478.582 667.792 436.825 648.937 405.44 617.551C374.056 586.166 355.202 544.407 352.415 500.11C349.628 455.813 363.1 412.021 390.304 376.949ZM465.937 784.875H338.078L380.809 656.685C405.237 679.181 434.293 696.058 465.937 706.132V784.875Z" fill="black"/>
</svg>
